<?xml version="1.0" standalone="no"?>
<!DOCTYPE svg PUBLIC "-//W3C//DTD SVG 20010904//EN"
 "http://www.w3.org/TR/2001/REC-SVG-20010904/DTD/svg10.dtd">
<svg version="1.0" xmlns="http://www.w3.org/2000/svg"
 width="500.000000pt" height="500.000000pt" viewBox="0 0 500.000000 500.000000"
 preserveAspectRatio="xMidYMid meet">

<g transform="translate(0.000000,500.000000) scale(0.100000,-0.100000)"
fill="#000000" stroke="none">
<path d="M3295 3809 c-38 -5 -110 -20 -160 -35 -457 -129 -784 -480 -891 -959
-21 -94 -30 -376 -15 -488 92 -692 682 -1155 1387 -1089 370 35 676 193 869
450 54 72 165 264 165 286 0 3 -88 6 -195 6 l-195 0 -26 -52 c-96 -191 -286
-335 -508 -388 -404 -97 -803 50 -1010 374 -66 102 -100 180 -134 304 -24 90
-26 111 -26 307 0 196 2 217 26 307 48 178 118 304 235 428 131 140 293 226
488 261 90 16 270 16 365 0 237 -41 445 -190 566 -408 l29 -53 193 0 c105 0
192 4 192 8 0 5 -20 47 -44 95 -155 302 -414 516 -741 608 -153 43 -396 59
-570 38z"/>
<path d="M1348 2798 c-3 -937 -4 -996 -21 -1043 -63 -168 -169 -239 -357 -238
-101 1 -176 25 -238 79 -56 48 -109 156 -124 257 l-13 77 -159 0 -159 0 6 -87
c19 -289 199 -513 472 -588 94 -25 293 -31 395 -11 207 41 372 165 456 341 73
152 68 78 72 1198 l3 1007 -165 0 -166 0 -2 -992z"/>
</g>
</svg>
